<svg xmlns:xlink="http://www.w3.org/1999/xlink" xmlns="http://www.w3.org/2000/svg" version="1.1" viewBox="0 0 1200 1224.89428" height="1224.89428px" width="1200px">
    <title>猫猫电视</title>
    <g fill-rule="evenodd" fill="none" stroke-width="1" stroke="none" id="页面-1">
        <g fill-rule="nonzero" id="猫猫电视">
            <path fill="#678490" id="形状" d="M808.684914,1011.83629 L783.42203,1007.81462 C777.908755,1005.7377 772.319956,1005.66218 766.655632,1007.58805 C758.347957,1002.60344 749.303921,999.695756 739.523522,998.864989 L710.012396,987.762914 C703.252969,979.304191 694.605435,974.583921 684.069793,973.602105 C675.799881,962.443387 665.887314,953.323826 659.599915,942.108466 C640.756598,908.349097 648.988749,881.009294 684.296366,860.089059 C693.661381,860.051297 702.629894,858.163189 711.201904,854.424735 L740.939603,853.008654 L766.429059,853.008654 L781.779376,853.235227 C790.804532,857.464589 800.320596,858.805146 810.327568,857.256897 C833.211435,863.525415 856.321876,868.925404 879.658889,873.456863 C898.634373,877.138673 893.763055,902.62813 874.221138,897.870098 C844.313509,890.506477 676.422956,855.670887 675.856524,911.407831 C675.516665,941.032244 719.415173,962.726604 743.885051,970.600014 C787.61363,984.685298 829.945008,987.800676 870.879187,979.946148 C1009.03204,953.38047 946.611195,831.087722 891.780542,766.967578 C890.534391,765.532616 888.94838,764.739611 887.02251,764.588562 L810.55414,758.357806 L810.55414,731.452269 C888.381948,749.068315 967.00276,732.131988 1018.1516,675.148892 C1056.78229,632.043389 1085.72698,554.498798 1094.90319,494.966756 C1103.70177,437.870374 1093.54375,382.567694 1064.42913,329.058716 C1061.03053,322.884603 1061.71025,316.257345 1065.44871,310.876237 C1070.01793,308.383935 1074.71931,307.798621 1079.55287,309.120297 C1081.40322,309.611205 1082.87594,310.649664 1083.97104,312.235675 L1094.95983,328.095781 L1102.60667,347.127909 C1102.94861,347.960188 1103.69577,348.557143 1104.583,348.706936 C1105.47023,348.856728 1106.37196,348.538156 1106.9682,347.864271 C1130.92829,320.335658 1191.36662,233.21836 1169.95548,197.87298 C1144.52266,155.787056 1014.97958,189.99957 978.614623,200.875072 C976.160083,201.630315 975.990153,202.744299 978.104834,204.217023 L1011.97749,227.950539 C1017.60405,234.521154 1018.49146,242.526732 1014.63972,251.967271 C993.341865,248.342104 973.932116,239.184781 956.410475,224.495302 C931.902834,210.070157 905.865827,199.289061 878.299451,192.152013 L869.802966,189.319852 L789.086354,168.078638 L782.005949,166.662557 C754.02419,160.280752 725.702572,156.976564 697.041094,156.749991 C686.901955,157.08985 641.927225,167.568849 633.09088,150.859094 C634.714653,142.438133 639.510447,136.698285 647.478262,133.63955 L689.79076,130.467529 C691.980965,130.31648 692.339706,129.42907 690.866982,127.805297 C659.146769,93.8193548 623.46153,64.648088 583.811265,40.2914962 C475.566039,-26.1510202 497.260399,149.329727 506.323317,193.398165 C506.700938,195.24851 507.644992,195.607251 509.155479,194.474386 L526.375023,181.389799 C538.949821,169.608005 550.12742,168.871643 559.907819,179.180712 C560.927397,186.600976 559.171457,191.528938 552.600841,195.833824 C487.876503,238.202965 447.489875,297.546196 431.440958,373.863516 C431.025574,375.902673 431.724174,377.394278 433.536758,378.338332 C454.796853,389.553693 465.200327,407.52848 464.747181,432.262693 C464.709419,434.188563 465.483543,435.69905 467.069554,436.794152 C488.367411,451.917896 499.696058,458.035366 507.512825,483.638109 C509.740792,492.05907 510.212819,500.555555 508.928906,509.127565 C504.057587,528.499552 498.279977,543.226794 503.717728,563.788289 C509.457576,585.652578 512.535192,607.951132 512.950576,630.683951 L483.212876,630.683951 C486.838044,614.068602 485.72406,597.302204 479.870925,580.384757 C479.191207,578.3456 477.982818,577.949098 476.245758,579.195249 C441.636741,604.288203 395.189287,589.900821 362.222923,568.489677 C360.297053,567.243526 359.37188,567.753315 359.447405,570.019045 C360.089361,590.448372 364.054388,610.19798 371.342484,629.26787 L343.020866,630.683951 C319.230707,557.557533 347.948827,480.239515 376.836878,412.664133 C382.614488,399.145281 390.771114,388.420828 401.306756,380.490775 C402.892767,379.320148 403.855702,377.753019 404.195561,375.789386 C415.146587,317.144755 440.541638,265.693816 480.380715,221.436567 C481.740152,219.92608 482.249941,218.17014 481.910082,216.168746 C473.640169,164.170255 450.189869,17.237699 527.73446,1.20766301 C590.835026,-11.7636382 686.278879,83.1137831 725.872502,124.916492 C729.648718,128.881518 734.217939,131.279415 739.580165,132.110183 C807.363238,142.5703 873.295966,159.959774 937.378347,184.278604 C939.153169,184.958322 940.946871,184.996085 942.759455,184.39189 C1001.32856,164.79333 1116.37097,132.903188 1169.3324,162.414314 C1247.61335,205.972963 1156.07788,334.89297 1115.69126,379.754413 C1114.40734,381.227137 1113.99196,382.907553 1114.4451,384.795661 C1135.23317,467.55143 1117.22062,548.268042 1081.70531,623.433617 C1047.71937,695.483814 1000.42227,741.761338 923.727327,758.810952 C922.754928,759.016686 921.961539,759.717099 921.636814,760.656482 C921.312089,761.595865 921.503557,762.636722 922.141317,763.399054 C1030.7264,895.094579 986.544676,1014.38524 808.684914,1011.83629 Z M403.345913,417.648738 C399.380886,423.237538 400.834729,426.220748 407.707442,426.59837 L435.519271,428.014451 C437.822763,428.165499 438.729055,427.108159 438.238147,424.842429 C433.083612,400.88234 418.5263,396.237595 403.345913,417.648738 Z M481.352713,510.949212 C483.987951,500.056461 482.188115,488.563004 476.349149,478.997285 C470.510183,469.431566 461.110388,462.577163 450.217625,459.941977 L427.315065,454.401136 C416.422314,451.765897 404.928857,453.565734 395.363138,459.4047 C385.797419,465.243666 378.943017,474.64346 376.30783,485.536224 L370.766989,508.438784 C368.13175,519.331534 369.931587,530.824991 375.770553,540.390711 C381.609519,549.95643 391.009313,556.810832 401.902077,559.446018 L424.804637,564.986859 C435.697387,567.622098 447.190845,565.822262 456.756564,559.983296 C466.322283,554.14433 473.176685,544.744535 475.811871,533.851772 L481.352713,510.949212 Z"></path>
            <path fill="#B0B9C6" id="路径" d="M647.478262,133.63955 C634.053815,106.847299 574.238558,26.6404762 539.233037,69.8026225 C527.564531,84.0767181 533.058925,108.09345 539.289681,124.293416 C540.007162,126.181524 539.761708,127.918583 538.553319,129.504594 C527.073623,144.571695 523.014191,161.866763 526.375023,181.389799 L509.155479,194.474386 C507.644992,195.607251 506.700938,195.24851 506.323317,193.398165 C497.260399,149.329727 475.566039,-26.1510202 583.811265,40.2914962 C623.46153,64.648088 659.146769,93.8193548 690.866982,127.805297 C692.339706,129.42907 691.980965,130.31648 689.79076,130.467529 L647.478262,133.63955 Z"></path>
            <path fill="#FFFFFF" id="路径" d="M647.478262,133.63955 C639.510447,136.698285 634.714653,142.438133 633.09088,150.859094 C607.790235,157.95838 583.395881,167.398919 559.907819,179.180712 C550.12742,168.871643 538.949821,169.608005 526.375023,181.389799 C523.014191,161.866763 527.073623,144.571695 538.553319,129.504594 C539.761708,127.918583 540.007162,126.181524 539.289681,124.293416 C533.058925,108.09345 527.564531,84.0767181 539.233037,69.8026225 C574.238558,26.6404762 634.053815,106.847299 647.478262,133.63955 Z"></path>
            <path fill="#B0B9C6" id="形状" d="M633.09088,150.859094 C641.927225,167.568849 686.901955,157.08985 697.041094,156.749991 C692.906138,194.077884 688.091463,240.072192 709.276034,260.35047 C714.079717,264.918495 721.458897,265.440495 726.89208,261.596621 C756.686423,240.298765 773.282891,200.931715 782.005949,166.662557 L789.086354,168.078638 C782.232522,193.114948 760.538163,297.395147 798.149272,305.834989 C834.684159,314.048259 865.724653,212.940081 869.802966,189.319852 L878.299451,192.152013 C869.406463,221.66314 859.833756,292.807045 891.327396,308.553865 C892.951169,309.384632 894.631585,309.497919 896.368644,308.893724 C927.012635,298.528012 944.798611,254.289644 956.410475,224.495302 C973.932116,239.184781 993.341865,248.342104 1014.63972,251.967271 C1035.03129,267.751853 1051.96761,287.388175 1065.44871,310.876237 C1061.71025,316.257345 1061.03053,322.884603 1064.42913,329.058716 C1093.54375,382.567694 1103.70177,437.870374 1094.90319,494.966756 C1085.72698,554.498798 1056.78229,632.043389 1018.1516,675.148892 C967.00276,732.131988 888.381948,749.068315 810.55414,731.452269 C811.460432,670.22093 814.179308,630.967167 743.092046,630.967167 C666.359341,631.004929 589.645518,630.910524 512.950576,630.683951 C512.535192,607.951132 509.457576,585.652578 503.717728,563.788289 C498.279977,543.226794 504.057587,528.499552 508.928906,509.127565 C524.279223,508.16463 562.116905,511.393295 564.439278,489.868865 C564.715786,487.158441 563.78096,484.464725 561.887859,482.51691 C559.994759,480.569096 557.339181,479.56864 554.639998,479.786369 L507.512825,483.638109 C499.696058,458.035366 488.367411,451.917896 467.069554,436.794152 C465.483543,435.69905 464.709419,434.188563 464.747181,432.262693 C465.200327,407.52848 454.796853,389.553693 433.536758,378.338332 C431.724174,377.394278 431.025574,375.902673 431.440958,373.863516 C447.489875,297.546196 487.876503,238.202965 552.600841,195.833824 C559.171457,191.528938 560.927397,186.600976 559.907819,179.180712 C583.395881,167.398919 607.790235,157.95838 633.09088,150.859094 Z M702.486209,340.246888 C704.224537,333.62018 700.261808,326.838957 693.635137,325.100487 L661.857714,316.763735 C658.675374,315.928789 655.291691,316.392249 652.451069,318.052155 C649.610446,319.712062 647.545584,322.432438 646.710747,325.614807 L646.394677,326.820176 C644.656349,333.446884 648.619078,340.228107 655.245749,341.966577 L687.023172,350.303329 C690.205512,351.138275 693.589195,350.674815 696.429817,349.014908 C699.27044,347.355002 701.335302,344.634625 702.170139,341.452256 L702.486209,340.246888 Z M602.982168,446.052489 C612.948182,448.555771 623.690894,446.239289 632.847007,439.612649 C642.00312,432.986008 648.822606,422.592034 651.805239,410.717305 C658.01646,385.989735 646.228117,361.718186 625.475197,356.505197 C615.509183,354.001915 604.766471,356.318397 595.610358,362.945037 C586.454245,369.571678 579.63476,379.965651 576.652126,391.84038 C570.440905,416.56795 582.229248,440.839499 602.982168,446.052489 L602.982168,446.052489 Z M910.66653,395.020332 C912.548798,388.367965 908.681914,381.449267 902.029569,379.566924 L870.417545,370.621824 C863.765348,368.739515 856.846728,372.606101 854.964137,379.258218 L854.655432,380.348601 C852.773163,387.000967 856.640047,393.919665 863.292392,395.802008 L894.904416,404.747108 C901.556613,406.629417 908.475233,402.762831 910.357824,396.110714 L910.66653,395.020332 Z M740.996246,448.575945 C718.282308,446.536789 684.522939,445.517211 670.53206,468.401078 C643.569879,512.526159 649.460776,583.500135 701.629197,605.704284 C787.217127,642.239171 876.260295,496.77934 771.52695,458.941658 C769.714367,458.299701 768.524859,457.034669 767.958427,455.146561 C763.653541,440.872465 799.621996,448.915805 789.256284,425.748721 C788.463278,423.9739 787.160484,422.74663 785.3479,422.066911 C775.491977,418.498387 737.824225,403.771145 732.782977,417.478809 C730.441723,423.860613 734.255701,431.885072 744.22491,441.552184 C745.499327,442.752868 745.865121,444.633037 745.133819,446.223941 C744.402516,447.814845 742.737331,448.76142 740.996246,448.575945 L740.996246,448.575945 Z M573.520888,457.467801 C574.370856,454.273893 573.917208,450.87315 572.259744,448.013725 C570.602281,445.154301 567.87678,443.070436 564.682844,442.220574 L505.01769,426.345174 C498.366894,424.575566 491.540786,428.532461 489.77103,435.183219 L489.538227,436.058923 C488.688259,439.252831 489.141907,442.653574 490.79937,445.512998 C492.456833,448.372423 495.182335,450.456288 498.376271,451.306149 L558.041424,467.181549 C564.692221,468.951158 571.518328,464.994262 573.288084,458.343505 L573.520888,457.467801 Z M890.878215,520.575163 C900.810693,523.088508 911.529487,520.783769 920.676568,514.167966 C929.82365,507.552162 936.64973,497.167231 939.65314,485.297756 C945.907532,460.581048 934.210734,436.301373 913.52758,431.067521 C903.595102,428.554176 892.876307,430.858915 883.729226,437.474719 C874.582145,444.090522 867.756064,454.475453 864.752655,466.344929 C858.498262,491.061637 870.19506,515.341311 890.878215,520.575163 L890.878215,520.575163 Z M994.096919,566.098766 C994.936861,562.964425 994.497277,559.624792 992.874874,556.81456 C991.252471,554.004328 988.580149,551.9537 985.445798,551.113798 L925.58919,535.075266 C919.06227,533.326577 912.353553,537.200053 910.604789,543.726953 L910.340831,544.711413 C909.50089,547.845754 909.940473,551.185387 911.562876,553.995619 C913.185279,556.805851 915.857601,558.856479 918.991953,559.696381 L978.84856,575.734914 C985.37548,577.483602 992.084197,573.610126 993.832962,567.083226 L994.096919,566.098766 Z M967.043543,622.877947 C968.839517,620.284276 969.531598,617.083387 968.967534,613.979441 C968.40347,610.875495 966.629466,608.122754 964.035787,606.326793 L919.422441,575.435271 C916.828771,573.639297 913.627881,572.947216 910.523935,573.51128 C907.41999,574.075344 904.667248,575.849347 902.871287,578.443027 L902.162114,579.467703 C900.36614,582.061373 899.674059,585.262263 900.238124,588.366209 C900.802188,591.470154 902.576191,594.222896 905.16987,596.018857 L949.783216,626.910379 C952.376886,628.706353 955.577776,629.398433 958.681722,628.834369 C961.785668,628.270305 964.538409,626.496302 966.33437,623.902623 L967.043543,622.877947 Z"></path>
            <path fill="#91A1B5" id="路径" d="M697.041094,156.749991 C725.702572,156.976564 754.02419,160.280752 782.005949,166.662557 C773.282891,200.931715 756.686423,240.298765 726.89208,261.596621 C721.458897,265.440495 714.079717,264.918495 709.276034,260.35047 C688.091463,240.072192 692.906138,194.077884 697.041094,156.749991 Z"></path>
            <path fill="#91A1B5" id="路径" d="M789.086354,168.078638 L869.802966,189.319852 C865.724653,212.940081 834.684159,314.048259 798.149272,305.834989 C760.538163,297.395147 782.232522,193.114948 789.086354,168.078638 Z"></path>
            <path fill="#B0B9C6" id="路径" d="M1094.95983,328.095781 C1107.68568,313.670637 1112.12273,296.56438 1108.27099,276.777009 C1107.89337,274.775615 1108.51645,273.189604 1110.14022,272.018977 C1117.95699,266.279129 1124.50872,259.46306 1129.79542,251.570769 C1154.03873,215.319097 1116.71083,191.075792 1083.63118,197.646407 C1057.68858,202.744299 1033.80402,212.845676 1011.97749,227.950539 L978.104834,204.217023 C975.990153,202.744299 976.160083,201.630315 978.614623,200.875072 C1014.97958,189.99957 1144.52266,155.787056 1169.95548,197.87298 C1191.36662,233.21836 1130.92829,320.335658 1106.9682,347.864271 C1106.37196,348.538156 1105.47023,348.856728 1104.583,348.706936 C1103.69577,348.557143 1102.94861,347.960188 1102.60667,347.127909 L1094.95983,328.095781 Z"></path>
            <path fill="#91A1B5" id="路径" d="M878.299451,192.152013 C905.865827,199.289061 931.902834,210.070157 956.410475,224.495302 C944.798611,254.289644 927.012635,298.528012 896.368644,308.893724 C894.631585,309.497919 892.951169,309.384632 891.327396,308.553865 C859.833756,292.807045 869.406463,221.66314 878.299451,192.152013 Z"></path>
            <path fill="#FFFFFF" id="路径" d="M1094.95983,328.095781 L1083.97104,312.235675 C1082.87594,310.649664 1081.40322,309.611205 1079.55287,309.120297 C1074.71931,307.798621 1070.01793,308.383935 1065.44871,310.876237 C1051.96761,287.388175 1035.03129,267.751853 1014.63972,251.967271 C1018.49146,242.526732 1017.60405,234.521154 1011.97749,227.950539 C1033.80402,212.845676 1057.68858,202.744299 1083.63118,197.646407 C1116.71083,191.075792 1154.03873,215.319097 1129.79542,251.570769 C1124.50872,259.46306 1117.95699,266.279129 1110.14022,272.018977 C1108.51645,273.189604 1107.89337,274.775615 1108.27099,276.777009 C1112.12273,296.56438 1107.68568,313.670637 1094.95983,328.095781 Z"></path>
            <path transform="translate(674.440443, 333.533532) rotate(14.700000) translate(-674.440443, -333.533532)" fill="#FFFFFF" id="矩形" d="M647.799036,320.505588 L701.08185,320.505588 C702.291354,320.505588 703.27185,321.486084 703.27185,322.695588 L703.27185,344.371476 C703.27185,345.58098 702.291354,346.561476 701.08185,346.561476 L647.799036,346.561476 C646.589532,346.561476 645.609036,345.58098 645.609036,344.371476 L645.609036,322.695588 C645.609036,321.486084 646.589532,320.505588 647.799036,320.505588 Z"></path>
            <ellipse ry="38.7439738" rx="46.1642378" cy="401.278843" cx="614.228683" transform="translate(614.228683, 401.278843) rotate(104.100000) translate(-614.228683, -401.278843)" fill="#605C5D" id="椭圆形"></ellipse>
            <path transform="translate(882.660981, 387.684466) rotate(15.800000) translate(-882.660981, -387.684466)" fill="#FFFFFF" id="矩形" d="M855.926287,374.599878 L909.395675,374.599878 C910.616224,374.599878 911.605675,375.589329 911.605675,376.809878 L911.605675,398.559054 C911.605675,399.779603 910.616224,400.769054 909.395675,400.769054 L855.926287,400.769054 C854.705737,400.769054 853.716287,399.779603 853.716287,398.559054 L853.716287,376.809878 C853.716287,375.589329 854.705737,374.599878 855.926287,374.599878 Z"></path>
            <path fill="#B0B9C6" id="路径" d="M403.345913,417.648738 C418.5263,396.237595 433.083612,400.88234 438.238147,424.842429 C438.729055,427.108159 437.822763,428.165499 435.519271,428.014451 L407.707442,426.59837 C400.834729,426.220748 399.380886,423.237538 403.345913,417.648738 Z"></path>
            <path fill="#678490" id="形状" d="M740.996246,448.575945 C742.737331,448.76142 744.402516,447.814845 745.133819,446.223941 C745.865121,444.633037 745.499327,442.752868 744.22491,441.552184 C734.255701,431.885072 730.441723,423.860613 732.782977,417.478809 C737.824225,403.771145 775.491977,418.498387 785.3479,422.066911 C787.160484,422.74663 788.463278,423.9739 789.256284,425.748721 C799.621996,448.915805 763.653541,440.872465 767.958427,455.146561 C768.524859,457.034669 769.714367,458.299701 771.52695,458.941658 C876.260295,496.77934 787.217127,642.239171 701.629197,605.704284 C649.460776,583.500135 643.569879,512.526159 670.53206,468.401078 C684.522939,445.517211 718.282308,446.536789 740.996246,448.575945 Z M684.692869,528.726125 C681.48379,530.661786 679.972916,534.49708 681.011058,538.072259 C704.404715,620.488168 791.46537,573.360996 772.659815,547.135177 C748.831894,514.017765 719.509578,507.881414 684.692869,528.726125 Z"></path>
            <path transform="translate(531.529557, 446.763362) rotate(14.900000) translate(-531.529557, -446.763362)" fill="#91A1B5" id="矩形" d="M490.397481,433.848704 L572.661633,433.848704 C573.87666,433.848704 574.861633,434.833677 574.861633,436.048704 L574.861633,457.47802 C574.861633,458.693046 573.87666,459.67802 572.661633,459.67802 L490.397481,459.67802 C489.182455,459.67802 488.197481,458.693046 488.197481,457.47802 L488.197481,436.048704 C488.197481,434.833677 489.182455,433.848704 490.397481,433.848704 Z"></path>
            <ellipse ry="38.6306873" rx="46.1642378" cy="475.821342" cx="902.202897" transform="translate(902.202897, 475.821342) rotate(104.200000) translate(-902.202897, -475.821342)" fill="#605C5D" id="椭圆形"></ellipse>
            <path transform="translate(426.059851, 509.693998) rotate(13.600000) translate(-426.059851, -509.693998)" fill="#B0B9C6" id="矩形" d="M379.482203,455.65635 L472.637498,455.65635 C476.757543,455.65635 480.097498,458.996306 480.097498,463.11635 L480.097498,556.271645 C480.097498,560.39169 476.757543,563.731645 472.637498,563.731645 L379.482203,563.731645 C375.362159,563.731645 372.022203,560.39169 372.022203,556.271645 L372.022203,463.11635 C372.022203,458.996306 375.362159,455.65635 379.482203,455.65635 Z"></path>
            <path fill="#91A1B5" id="路径" d="M508.928906,509.127565 C510.212819,500.555555 509.740792,492.05907 507.512825,483.638109 L554.639998,479.786369 C557.339181,479.56864 559.994759,480.569096 561.887859,482.51691 C563.78096,484.464725 564.715786,487.158441 564.439278,489.868865 C562.116905,511.393295 524.279223,508.16463 508.928906,509.127565 Z"></path>
            <path fill="#FD80A6" id="路径" d="M684.692869,528.726125 C719.509578,507.881414 748.831894,514.017765 772.659815,547.135177 C791.46537,573.360996 704.404715,620.488168 681.011058,538.072259 C679.972916,534.49708 681.48379,530.661786 684.692869,528.726125 L684.692869,528.726125 Z"></path>
            <path transform="translate(952.218875, 555.405090) rotate(15.000000) translate(-952.218875, -555.405090)" fill="#91A1B5" id="矩形" d="M911.160086,542.660361 L993.277665,542.660361 C994.4706,542.660361 995.437665,543.627426 995.437665,544.820361 L995.437665,565.989818 C995.437665,567.182753 994.4706,568.149818 993.277665,568.149818 L911.160086,568.149818 C909.967151,568.149818 909.000086,567.182753 909.000086,565.989818 L909.000086,544.820361 C909.000086,543.627426 909.967151,542.660361 911.160086,542.660361 Z"></path>
            <path fill="#B0B9C6" id="路径" d="M483.212876,630.683951 L371.342484,629.26787 C364.054388,610.19798 360.089361,590.448372 359.447405,570.019045 C359.37188,567.753315 360.297053,567.243526 362.222923,568.489677 C395.189287,589.900821 441.636741,604.288203 476.245758,579.195249 C477.982818,577.949098 479.191207,578.3456 479.870925,580.384757 C485.72406,597.302204 486.838044,614.068602 483.212876,630.683951 Z"></path>
            <path transform="translate(934.602829, 601.172825) rotate(34.700000) translate(-934.602829, -601.172825)" fill="#91A1B5" id="矩形" d="M897.675639,588.654669 L971.530019,588.654669 C972.689817,588.654669 973.630019,589.594871 973.630019,590.754669 L973.630019,611.59098 C973.630019,612.750778 972.689817,613.69098 971.530019,613.69098 L897.675639,613.69098 C896.515841,613.69098 895.575639,612.750778 895.575639,611.59098 L895.575639,590.754669 C895.575639,589.594871 896.515841,588.654669 897.675639,588.654669 Z"></path>
            <path fill="#605C5D" id="形状" d="M371.342484,629.26787 L483.212876,630.683951 L512.950576,630.683951 C589.645518,630.910524 666.359341,631.004929 743.092046,630.967167 C814.179308,630.967167 811.460432,670.22093 810.55414,731.452269 L810.55414,758.357806 L810.327568,857.256897 C800.320596,858.805146 790.804532,857.464589 781.779376,853.235227 C782.119236,797.611569 782.251403,742.006792 782.175879,686.420896 C782.175879,672.1468 778.550712,662.404163 765.012978,657.929348 C764.277966,657.691032 763.469369,657.855012 762.895276,658.358808 C762.321183,658.862604 762.07001,659.628626 762.23746,660.365007 C765.466124,676.678259 767.165421,692.255149 766.598989,709.927839 C765.164027,757.621444 765.107384,805.315049 766.429059,853.008654 L740.939603,853.008654 C738.749398,797.649331 737.805344,742.271127 738.107441,686.874042 C738.277371,651.075516 709.162747,657.306272 684.296366,657.249629 C472.941569,656.645434 261.586773,656.381099 50.2319761,656.456624 C34.2585834,656.456624 27.5746815,671.693654 27.4047518,686.647469 C26.0453141,829.954857 27.6313247,973.318889 27.1781788,1116.62628 C27.0648924,1154.29403 81.6123292,1141.66259 104.439553,1141.77587 C308.921637,1142.98426 513.422603,1142.56888 717.942449,1140.52972 C730.101863,1140.41644 736.766884,1134.78988 737.937511,1123.65004 C739.901143,1105.14658 740.429814,1063.55156 739.523522,998.864989 C749.303921,999.695756 758.347957,1002.60344 766.655632,1007.58805 C766.882205,1047.50265 766.334654,1087.41725 765.012978,1127.33185 C764.843049,1131.69338 762.803892,1134.97869 761.104595,1139.00036 C760.009492,1141.68147 760.859141,1142.66329 763.653541,1141.9458 C777.870993,1138.26399 782.572382,1127.95492 782.289165,1113.34097 C781.49616,1078.14664 781.873782,1042.97119 783.42203,1007.81462 L808.684914,1011.83629 C809.893303,1030.94394 810.327568,1063.49492 809.987708,1109.48923 C809.477919,1183.29537 742.978759,1169.02127 693.019425,1168.85134 C690.904744,1168.85134 690.073976,1169.8898 690.527122,1171.96672 C696.701235,1200.51491 675.006875,1229.17639 646.232111,1224.36171 C622.328665,1220.2834 581.262319,1185.61774 559.794532,1170.72057 C558.132997,1169.5877 556.301533,1169.02127 554.300138,1169.02127 L235.568646,1169.02127 C233.756063,1169.02127 232.094528,1169.53106 230.584041,1170.55064 C209.342828,1184.99466 156.381401,1229.51625 131.85488,1224.0785 C107.045142,1218.5841 94.3004142,1197.28625 98.9451596,1172.13665 C99.285019,1170.2863 98.5297758,1169.34225 96.6794301,1169.30449 C54.4235756,1168.56813 4.06773831,1176.49818 1.63207914,1116.45635 C-1.25672593,1046.21873 0.499214406,961.08395 0.839073825,902.798059 C1.2166954,832.069538 1.55655482,761.341017 1.85865208,690.612495 C2.02858179,655.040543 16.3026774,630.910524 54.1403594,630.910524 C150.433862,631.02381 246.727364,630.948286 343.020866,630.683951 L371.342484,629.26787 Z M128.286356,1171.45693 C120.639519,1185.33452 128.739502,1207.08553 147.26184,1195.41702 C159.572304,1187.67578 170.070184,1180.14223 178.75548,1172.81637 C181.776452,1170.2863 181.323307,1169.02127 177.396042,1169.02127 L132.364669,1169.02127 C130.514323,1169.02127 129.154886,1169.83316 128.286356,1171.45693 Z M610.093726,1174.57231 L645.722322,1198.02261 C647.837003,1199.38205 650.046089,1199.60862 652.349581,1198.70233 C663.904801,1194.09534 667.643255,1185.82543 663.564942,1173.89259 C662.809698,1171.66462 661.26145,1170.38071 658.920196,1170.04085 C643.248901,1168.03946 627.275508,1168.17162 611.000018,1170.43735 C607.034992,1171.00378 606.732894,1172.3821 610.093726,1174.57231 Z"></path>
            <path fill="#777677" id="路径" d="M740.939603,853.008654 L711.201904,854.424735 C710.597709,812.357692 710.314493,770.309529 710.352255,728.280248 C710.352255,695.880316 691.490057,686.364252 660.846066,686.307609 C473.772337,685.892226 286.679727,686.024393 99.5682352,686.704112 C71.9263357,686.817398 56.1228727,699.27891 56.0095862,727.260669 C55.5942025,837.488408 55.4997971,947.716146 55.7263701,1057.94388 C55.7830133,1090.23053 61.5606234,1113.34097 97.9822245,1113.39761 C284.074138,1113.73747 470.14717,1113.83188 656.201321,1113.68083 C682.25721,1113.68083 705.820796,1109.43259 709.785823,1081.2809 C712.617984,1061.11591 712.693509,1029.94324 710.012396,987.762914 L739.523522,998.864989 C740.429814,1063.55156 739.901143,1105.14658 737.937511,1123.65004 C736.766884,1134.78988 730.101863,1140.41644 717.942449,1140.52972 C513.422603,1142.56888 308.921637,1142.98426 104.439553,1141.77587 C81.6123292,1141.66259 27.0648924,1154.29403 27.1781788,1116.62628 C27.6313247,973.318889 26.0453141,829.954857 27.4047518,686.647469 C27.5746815,671.693654 34.2585834,656.456624 50.2319761,656.456624 C261.586773,656.381099 472.941569,656.645434 684.296366,657.249629 C709.162747,657.306272 738.277371,651.075516 738.107441,686.874042 C737.805344,742.271127 738.749398,797.649331 740.939603,853.008654 Z"></path>
            <path fill="#777677" id="路径" d="M781.779376,853.235227 L766.429059,853.008654 C765.107384,805.315049 765.164027,757.621444 766.598989,709.927839 C767.165421,692.255149 765.466124,676.678259 762.23746,660.365007 C762.07001,659.628626 762.321183,658.862604 762.895276,658.358808 C763.469369,657.855012 764.277966,657.691032 765.012978,657.929348 C778.550712,662.404163 782.175879,672.1468 782.175879,686.420896 C782.251403,742.006792 782.119236,797.611569 781.779376,853.235227 Z"></path>
            <path fill="#605C5D" id="路径" d="M711.201904,854.424735 C702.629894,858.163189 693.661381,860.051297 684.296366,860.089059 L683.956507,723.748789 C683.956507,717.554716 678.935219,712.533428 672.741146,712.533428 L90.9584632,712.92993 C88.304621,712.929888 85.7602915,713.987984 83.8890652,715.869842 C82.0178389,717.7517 80.9741749,720.301984 80.9892536,722.955783 L81.9521886,1076.74944 C81.9833493,1082.35828 86.5390425,1086.88866 92.1479712,1086.88858 L673.081005,1086.88858 C679.149945,1086.88858 684.069793,1081.99409 684.069793,1075.95643 L684.069793,973.602105 C694.605435,974.583921 703.252969,979.304191 710.012396,987.762914 C712.693509,1029.94324 712.617984,1061.11591 709.785823,1081.2809 C705.820796,1109.43259 682.25721,1113.68083 656.201321,1113.68083 C470.14717,1113.83188 284.074138,1113.73747 97.9822245,1113.39761 C61.5606234,1113.34097 55.7830133,1090.23053 55.7263701,1057.94388 C55.4997971,947.716146 55.5942025,837.488408 56.0095862,727.260669 C56.1228727,699.27891 71.9263357,686.817398 99.5682352,686.704112 C286.679727,686.024393 473.772337,685.892226 660.846066,686.307609 C691.490057,686.364252 710.352255,695.880316 710.352255,728.280248 C710.314493,770.309529 710.597709,812.357692 711.201904,854.424735 Z"></path>
            <path fill="#66E0E9" id="形状" d="M684.296366,860.089059 C648.988749,881.009294 640.756598,908.349097 659.599915,942.108466 C665.887314,953.323826 675.799881,962.443387 684.069793,973.602105 L684.069793,1075.95643 C684.069793,1081.99409 679.149945,1086.88858 673.081005,1086.88858 L92.1479712,1086.88858 C86.5390425,1086.88858 81.9833493,1082.35828 81.9521886,1076.74944 L80.9890924,722.955783 C80.9741749,720.301984 82.0178389,717.7517 83.8890652,715.869842 C85.7602915,713.987984 88.304621,712.929888 90.9584632,712.92993 L672.741146,712.533428 C678.935219,712.533428 683.956507,717.554716 683.956507,723.748789 L684.296366,860.089059 Z M484.232455,984.251034 C491.709362,973.772035 499.526129,963.406323 504.28416,952.814037 C533.965216,886.88131 505.077166,809.393362 440.447233,779.825593 C367.717317,746.576013 281.676241,786.566138 260.548313,863.657583 C236.305008,951.851102 301.388087,1024.24116 388.108882,1028.65933 C447.131135,1031.66142 501.848501,1018.69012 546.823231,977.793705 C558.095235,967.597922 558.095235,951.567886 539.402967,952.134318 C537.439335,952.209843 535.740038,952.927324 534.305076,954.286761 C520.182029,967.73009 504.397447,978.794402 486.95133,987.479698 C481.740152,990.085287 480.83386,989.009065 484.232455,984.251034 Z"></path>
            <path fill="#B0B9C6" id="路径" d="M810.55414,758.357806 L887.02251,764.588562 C888.94838,764.739611 890.534391,765.532616 891.780542,766.967578 C946.611195,831.087722 1009.03204,953.38047 870.879187,979.946148 C829.945008,987.800676 787.61363,984.685298 743.885051,970.600014 C719.415173,962.726604 675.516665,941.032244 675.854562,911.407831 C676.422956,855.670887 844.313509,890.506477 874.221138,897.870098 C893.763055,902.62813 898.634373,877.138673 879.658889,873.456863 C856.321876,868.925404 833.211435,863.525415 810.327568,857.256897 L810.55414,758.357806 Z"></path>
            <path fill="#605C5D" id="形状" d="M486.95133,987.479698 C504.397447,978.794402 520.182029,967.73009 534.305076,954.286761 C535.740038,952.927324 537.439335,952.209843 539.402967,952.134318 C558.095235,951.567886 558.095235,967.597922 546.823231,977.793705 C501.848501,1018.69012 447.131135,1031.66142 388.108882,1028.65933 C301.388087,1024.24116 236.305008,951.851102 260.548313,863.657583 C281.676241,786.566138 367.717317,746.576013 440.447233,779.825593 C505.077166,809.393362 533.965216,886.88131 504.28416,952.814037 C499.526129,963.406323 491.709362,973.772035 484.232455,984.251034 C480.83386,989.009065 481.740152,990.085287 486.95133,987.479698 Z M489.386989,898.209957 C489.386989,840.930426 442.952754,794.496191 385.673223,794.496191 C328.393692,794.496191 281.959457,840.930426 281.959457,898.209957 C281.959457,955.489489 328.393692,1001.92372 385.673223,1001.92372 C442.952754,1001.92372 489.386989,955.489489 489.386989,898.209957 L489.386989,898.209957 Z"></path>
            <path fill="#777677" id="形状" d="M489.386989,898.209957 C489.386989,955.489489 442.952754,1001.92372 385.673223,1001.92372 C328.393692,1001.92372 281.959457,955.489489 281.959457,898.209957 C281.959457,840.930426 328.393692,794.496191 385.673223,794.496191 C442.952754,794.496191 489.386989,840.930426 489.386989,898.209957 L489.386989,898.209957 Z M416.996933,839.98071 C416.996933,822.900085 403.150351,809.053503 386.069726,809.053503 C368.989101,809.053503 355.142519,822.900085 355.142519,839.98071 C355.142519,857.061335 368.989101,870.907917 386.069726,870.907917 C394.272131,870.907917 402.138587,867.649524 407.938564,861.849548 C413.73854,856.049572 416.996933,848.183115 416.996933,839.98071 L416.996933,839.98071 Z M358.767686,898.153314 C358.767686,880.947556 344.819663,866.999534 327.613906,866.999534 C310.408148,866.999534 296.460125,880.947556 296.460125,898.153314 C296.460125,915.359072 310.408148,929.307094 327.613906,929.307094 C344.819663,929.307094 358.767686,915.359072 358.767686,898.153314 Z M475.339467,898.153314 C475.339467,881.010123 461.442164,867.11282 444.298973,867.11282 C427.155782,867.11282 413.258479,881.010123 413.258479,898.153314 C413.258479,915.296505 427.155782,929.193808 444.298973,929.193808 C452.531424,929.193808 460.426695,925.923479 466.247916,920.102258 C472.069138,914.281036 475.339467,906.385765 475.339467,898.153314 L475.339467,898.153314 Z M416.827003,956.439204 C416.827003,948.221776 413.562643,940.340913 407.752043,934.530314 C401.941444,928.719715 394.060581,925.455354 385.843153,925.455354 C368.731245,925.455354 354.859302,939.327296 354.859302,956.439204 C354.859302,964.656632 358.123663,972.537496 363.934262,978.348095 C369.744861,984.158694 377.625725,987.423055 385.843153,987.423055 C394.060581,987.423055 401.941444,984.158694 407.752043,978.348095 C413.562643,972.537496 416.827003,964.656632 416.827003,956.439204 Z"></path>
            <circle r="30.9272072" cy="839.98071" cx="386.069726" fill="#FFFFFF" id="椭圆形"></circle>
            <circle r="31.1537801" cy="898.153314" cx="327.613906" fill="#FFFFFF" id="椭圆形"></circle>
            <circle r="31.0404936" cy="898.153314" cx="444.298973" fill="#FFFFFF" id="椭圆形"></circle>
            <circle r="30.9838504" cy="956.439204" cx="385.843153" fill="#FFFFFF" id="椭圆形"></circle>
            <path fill="#777677" id="路径" d="M783.42203,1007.81462 C781.873782,1042.97119 781.49616,1078.14664 782.289165,1113.34097 C782.572382,1127.95492 777.870993,1138.26399 763.653541,1141.9458 C760.859141,1142.66329 760.009492,1141.68147 761.104595,1139.00036 C762.803892,1134.97869 764.843049,1131.69338 765.012978,1127.33185 C766.334654,1087.41725 766.882205,1047.50265 766.655632,1007.58805 C772.319956,1005.66218 777.908755,1005.7377 783.42203,1007.81462 Z"></path>
            <path fill="#777677" id="路径" d="M147.26184,1195.41702 C128.739502,1207.08553 120.639519,1185.33452 128.286356,1171.45693 C129.154886,1169.83316 130.514323,1169.02127 132.364669,1169.02127 L177.396042,1169.02127 C181.323307,1169.02127 181.776452,1170.2863 178.75548,1172.81637 C170.070184,1180.14223 159.572304,1187.67578 147.26184,1195.41702 Z"></path>
            <path fill="#777677" id="路径" d="M611.000018,1170.43735 C627.275508,1168.17162 643.248901,1168.03946 658.920196,1170.04085 C661.26145,1170.38071 662.809698,1171.66462 663.564942,1173.89259 C667.643255,1185.82543 663.904801,1194.09534 652.349581,1198.70233 C650.046089,1199.60862 647.837003,1199.38205 645.722322,1198.02261 L610.093726,1174.57231 C606.732894,1172.3821 607.034992,1171.00378 611.000018,1170.43735 Z"></path>
        </g>
    </g>
</svg>